<?xml version="1.0" encoding="utf-8"?>
<!-- Generator: Adobe Illustrator 24.3.0, SVG Export Plug-In . SVG Version: 6.00 Build 0)  -->
<svg version="1.1" id="Layer_1" xmlns="http://www.w3.org/2000/svg" xmlns:xlink="http://www.w3.org/1999/xlink" x="0px" y="0px"
	 viewBox="0 0 18.29 18.29" style="enable-background:new 0 0 18.29 18.29;" xml:space="preserve">
<style type="text/css">
	.st0{fill:#00A651;}
	.st1{fill:#B11F8E;}
	.st2{fill:#FFF200;}
	.st3{fill:#6D92CB;}
	.st4{fill:#F9A01B;}
	.st5{fill:#4AC8F5;}
	.st6{fill:#ED1C24;}
	.st7{fill:#FFFFFF;}
</style>
<circle class="st4" cx="9.14" cy="9.14" r="8.23"/>
<g>
	<path class="st7" d="M13.71,6.97c0,1.2-0.85,1.77-2.71,1.87v0.19c1.97,0.06,2.9,0.72,2.9,2.1c0,1.52-1.19,2.17-3.65,2.17H4.38
		v-0.35h0.92V5.31H4.38V4.98h5.88C12.61,4.98,13.71,5.52,13.71,6.97z M8.95,8.79c0.88,0,1.21-0.17,1.21-1.13V6.48
		c0-0.85-0.32-1.18-1.14-1.18H8.81v3.48H8.95z M8.98,12.96c0.97,0,1.32-0.2,1.32-1.26v-1.31c0-0.95-0.36-1.29-1.25-1.29H8.81v3.86
		H8.98z"/>
</g>
</svg>
