<?xml version="1.0" encoding="utf-8"?>
<!-- Generator: Adobe Illustrator 24.3.0, SVG Export Plug-In . SVG Version: 6.00 Build 0)  -->
<svg version="1.1" id="Layer_1" xmlns="http://www.w3.org/2000/svg" xmlns:xlink="http://www.w3.org/1999/xlink" x="0px" y="0px"
	 viewBox="0 0 18.29 18.29" style="enable-background:new 0 0 18.29 18.29;" xml:space="preserve">
<style type="text/css">
	.st0{fill:#00A651;}
	.st1{fill:#B11F8E;}
	.st2{fill:#FFF200;}
	.st3{fill:#6D92CB;}
	.st4{fill:#F9A01B;}
	.st5{fill:#4AC8F5;}
	.st6{fill:#ED1C24;}
	.st7{fill:#FFFFFF;}
</style>
<circle class="st2" cx="9.14" cy="9.14" r="8.23"/>
<g>
	<path d="M12.71,7.77c-0.53-1.58-1.45-2.42-2.52-2.42c-1.35,0-1.4,1.21-1.4,4.05c0,2.34,0.19,3.48,1.61,3.48
		c1.28,0,2.22-0.86,2.46-2.39h0.4c-0.19,1.93-1.48,3-3.69,3c-2.67,0-4.52-1.94-4.52-4.35c0-1.12,0.48-2.28,1.21-3.03
		C7.06,5.28,8.24,4.8,9.49,4.8c0.85,0,1.46,0.19,2.23,0.64l1.02-0.64h0.34v2.97H12.71z"/>
</g>
</svg>
