<?xml version="1.0" encoding="utf-8"?>
<!-- Generator: Adobe Illustrator 24.3.0, SVG Export Plug-In . SVG Version: 6.00 Build 0)  -->
<svg version="1.1" id="Layer_1" xmlns="http://www.w3.org/2000/svg" xmlns:xlink="http://www.w3.org/1999/xlink" x="0px" y="0px"
	 viewBox="0 0 18.29 18.29" style="enable-background:new 0 0 18.29 18.29;" xml:space="preserve">
<style type="text/css">
	.st0{fill:#00A651;}
	.st1{fill:#B11F8E;}
	.st2{fill:#FFF200;}
	.st3{fill:#6D92CB;}
	.st4{fill:#F9A01B;}
	.st5{fill:#4AC8F5;}
	.st6{fill:#ED1C24;}
	.st7{fill:#FFFFFF;}
</style>
<circle class="st1" cx="9.14" cy="9.14" r="8.23"/>
<g>
	<path class="st7" d="M8.99,9.02h4.75v0.34h-0.64v3.17c-0.44,0.04-0.88,0.12-1.31,0.26c-0.66,0.23-1.49,0.71-2.82,0.71
		c-1.15,0-2.1-0.32-2.89-1c-0.96-0.82-1.55-2.09-1.55-3.36c0-2.42,1.8-4.35,4.67-4.35c0.85,0,1.56,0.19,2.33,0.65l1.02-0.64h0.34
		v2.97h-0.36c-0.54-1.59-1.44-2.42-2.57-2.42c-1.3,0-1.69,0.74-1.69,2.36v4.26c0,0.78,0.2,1.18,0.79,1.18c0.49,0,0.72-0.4,0.72-1.18
		V9.36H8.99V9.02z"/>
</g>
</svg>
